<?xml version="1.0" encoding="utf-8"?>
<!-- Generator: Adobe Illustrator 23.0.3, SVG Export Plug-In . SVG Version: 6.00 Build 0)  -->
<svg version="1.1" id="Capa_1" xmlns="http://www.w3.org/2000/svg" xmlns:xlink="http://www.w3.org/1999/xlink" x="0px" y="0px"
	 viewBox="0 0 350 350" style="enable-background:new 0 0 350 350;" xml:space="preserve">
<style type="text/css">
	.st0{fill:#654EA3;}
</style>
<path class="st0" d="M175,0C78.3,0,0,78.3,0,175c0,96.7,78.3,175,175,175c96.7,0,175-78.3,175-175C350,78.3,271.7,0,175,0z
	 M258.7,189l-104.4,71.8c-2.9,2-6.3,3-9.7,3c-2.7,0-5.4-0.6-7.9-2c-5.6-3-9.1-8.8-9.1-15.1V103.2c0-6.3,3.5-12.1,9.1-15.1
	c5.6-2.9,12.4-2.5,17.6,1.1l104.4,71.8c4.6,3.2,7.4,8.4,7.4,14.1C266.1,180.6,263.4,185.9,258.7,189z"/>
</svg>
